<svg version="1" xmlns="http://www.w3.org/2000/svg" width="764" height="764" viewBox="0 0 573.000000 573.000000"><path d="M232.6 149.7c-1.1.3-3.8 1.7-6 3-3.1 2-5.6 2.7-11.5 3-4.2.2-9.5.5-11.7.6-3.2.2-5.1 1.1-8.2 3.9-2.2 2-4.9 4.1-5.9 4.6-1.7.9-17 .9-100 0-10.6-.2-19.3-.7-19.3-1.2 0-.4-.6-.4-1.2.1-.7.5-2.4.8-3.8.7-1.4-.2-10.6-.6-20.5-.8-9.9-.3-19.8-.8-22-1-2.2-.3-6.2-.7-8.9-1-2.7-.3-5.7-.8-6.6-1.1-3-.9-4.8 1.6-3.8 5.2 1 3.7 23.4 27.2 34.5 36.3 10.7 8.7 19.9 15.7 22.5 17.1 1.2.6 2.5 1.5 2.8 1.9 1 1.3 14.7 10 15.9 10 .6 0 1.1.4 1.1 1 0 .5.4 1 .9 1 .4 0 3.5 1.6 6.9 3.6 3.3 2 6.4 3.6 6.9 3.6.4 0 1.5.5 2.3 1.2 1.9 1.7 15.1 7.9 16.8 7.9.6 0 1.2.4 1.2.8 0 .5 3.1 1.8 6 2.3.3.1 1.1.5 1.7.9 1.7 1.1 12.2 4.7 15.3 5.3 1.3.3 3 1 3.7 1.5.7.6 1.7.8 2.3.4.5-.3 1-.1 1 .5 0 .7.6 1 1.4.7.8-.3 1.7-.3 2 .1.4.3 1.2.7 1.9.8.7.2 2.3.6 3.7.9 2.6.7 4.5 1.1 9.5 1.9 1.7.3 4.4.8 6 1.1 1.7.4 4.4.8 6 1 1.7.2 4.7.6 6.8.9 8.4 1.3 11.4 1.8 15.7 2.2 2.5.3 5.6.7 7 .9 1.4.3 4.1.7 6 1 8.1 1.2 15.6 2.9 19.1 4.3 1.5.6 3 .8 3.3.5.3-.4.6-.1.6.5 0 .7.7 1.2 1.6 1.2 2 0 9.1 4.9 13.6 9.4 1.9 1.9 4.9 6.3 6.6 9.8 11.9 24.1 2.7 44.2-24.8 54.6-8.2 3.1-9.3 3.5-11.5 3.9-1.1.2-4.9 1.7-8.5 3.5-5.3 2.6-9.3 6-21.6 18.4-8.3 8.4-15.8 16.8-16.7 18.6-2.4 5-1.9 33.2.6 37 1 1.4 2.6 3 3.5 3.4 2.3 1.2 69.8 1.5 74.7.4 3.7-.8 10.1-2 13.5-2.4.8-.2 2.4-.5 3.5-.9 2.8-.8 13-1.9 33-3.4 10.3-.9 51.5-.9 62.5-.1 14.5 1.1 20.5 1.7 24 2.4 1.9.3 4.2.6 5 .6 1.7-.1 16.4 2.4 22.3 3.8 2.2.4 20.4.8 40.5.7 39.6-.2 40.8-.4 43.2-5.5.6-1.5 1.4-8.1 1.7-14.7.6-14.2 0-15.6-10.7-27.7-20.5-23-27.8-29.2-40-34-10.8-4.3-20.5-7.8-21.3-7.7-.4 0-3.5-1.5-6.8-3.2-8.6-4.6-15.6-12.2-19.8-21.6-1.8-4-1.9-7.7-1.8-80.5.1-42 .6-76.9 1-77.6 1.3-2 3.7-1.4 4.6 1.2.5 1.3 1.1 20.3 1.3 42.4l.3 40 3 4.3c4.3 6.1 8.2 7.8 16.6 7.4 8.1-.3 12.4-2.9 15.5-9.2 1.7-3.5 1.9-7 2.2-43.2.2-21.7.8-40.5 1.3-41.8.9-2.3 3.3-3.1 4.3-1.4.9 1.4 1.5 12.3 2.1 35.5.4 18.2.7 21.5 2.5 25 2.3 4.7 7.6 8.7 12 9.1 1.7.1 3.3.5 3.6.8.7.6 5.7-.8 10.2-2.9 1.9-.9 4.6-3.6 6.3-6.2l2.9-4.6v-26.2c0-14.7.4-27.4 1-28.8 1-2.7 4.7-3.6 5.5-1.4.2.7.6 10.7.8 22.3.5 24.9.9 26.4 9.3 33.4.9.8 2.6 1.5 3.8 1.5 1.1.1 2.6.4 3.1.8 1.3.7 7.4.2 10.1-.9 3.3-1.3 8.1-5.7 9.8-9.2 1.3-2.4 1.8-7.1 2.2-20.9.6-23.1 1-26.4 3.1-28 3.2-2.3 3.8 1.3 4.7 26.9.4 11.5.8 12.9 5.8 17.5 5.7 5.4 18.1 6.6 21 2.1 2-3.2.1-10.7-2.7-10.7-.8 0-1.5-.4-1.5-.8s-1.2-.8-2.7-.8c-4.3.1-5.1-3-5.4-19.7-.2-8.3-.8-16.3-1.5-18.3-3.5-10.3-15.9-14.8-25.8-9.5-9.5 5.2-10.1 7.6-10.5 36.9-.1 9.6-.5 18-.8 18.8-.3.8-1.6 1.4-2.9 1.4-3.1 0-3.2-.6-3.7-25-.4-22.9-1.1-26-6.8-30.2-6.5-4.8-13.4-5.6-19.9-2.3-10.4 5.2-10.8 6.9-11 44.2-.1 18.4-.4 22.6-1.6 23.8-.9.8-1.9 1.5-2.4 1.5-2.4 0-2.7-3.2-3.4-34.7-.6-24.6-1.1-26.8-6.9-32-7.3-6.6-18.9-6.2-25.3.9-5.8 6.3-5.6 5.1-6 42.1-.5 47.3-.8 49.6-4.6 49.7-2 0-2.6-8.7-2.8-38.6-.2-45.2-.4-47-3.8-51.3-1.5-1.9-4.6-4.4-6.8-5.5-3.9-2.1-5-2.1-90.4-2.2-47.6-.1-87.4.1-88.4.3z"/></svg>